<svg width="16" height="16" viewBox="0 0 16 16" fill="none" xmlns="http://www.w3.org/2000/svg">
<rect width="16" height="16" fill="white"/>
<path d="M4.63844 11.8756C3.9451 11.8756 3.3211 11.7796 2.76644 11.5876C2.22244 11.385 1.79577 11.1076 1.48644 10.7556C1.18777 10.393 1.03844 9.98763 1.03844 9.53963C1.03844 9.04897 1.1931 8.64363 1.50244 8.32363C1.82244 8.00363 2.22244 7.84363 2.70244 7.84363C2.79844 7.84363 2.8731 7.85963 2.92644 7.89163C2.97977 7.92363 3.00644 7.96097 3.00644 8.00363C3.00644 8.03563 2.95844 8.12097 2.86244 8.25963C2.7771 8.3983 2.70244 8.55297 2.63844 8.72363C2.57444 8.8943 2.54244 9.09697 2.54244 9.33163C2.54244 9.84363 2.73444 10.2596 3.11844 10.5796C3.50244 10.8996 4.0091 11.0596 4.63844 11.0596C5.1931 11.0596 5.6411 10.9156 5.98244 10.6276C6.32377 10.329 6.49444 9.92363 6.49444 9.41163C6.49444 8.99563 6.38777 8.64363 6.17444 8.35563C5.9611 8.06763 5.69444 7.83297 5.37444 7.65163C5.0651 7.45963 4.64377 7.2463 4.11044 7.01163C3.50244 6.74497 3.00644 6.4943 2.62244 6.25963C2.2491 6.02497 1.9291 5.71563 1.66244 5.33163C1.40644 4.94763 1.27844 4.4623 1.27844 3.87563C1.27844 3.38497 1.39577 2.9263 1.63044 2.49963C1.87577 2.0623 2.23844 1.71563 2.71844 1.45963C3.19844 1.19297 3.77977 1.05963 4.46244 1.05963C5.0811 1.05963 5.63577 1.1503 6.12644 1.33163C6.6171 1.51297 7.0011 1.76363 7.27844 2.08363C7.55577 2.40363 7.69444 2.77163 7.69444 3.18763C7.69444 3.6783 7.5451 4.08363 7.24644 4.40363C6.95844 4.71297 6.59044 4.86763 6.14244 4.86763C5.95044 4.86763 5.85444 4.80897 5.85444 4.69163C5.85444 4.6703 5.89177 4.59563 5.96644 4.46763C6.05177 4.32897 6.12644 4.1743 6.19044 4.00363C6.25444 3.8223 6.28644 3.6143 6.28644 3.37963C6.28644 2.9423 6.11577 2.57963 5.77444 2.29163C5.4331 2.00363 4.99577 1.85963 4.46244 1.85963C3.88644 1.85963 3.44377 2.02497 3.13444 2.35563C2.8251 2.67563 2.67044 3.0703 2.67044 3.53963C2.67044 3.9023 2.77177 4.21163 2.97444 4.46763C3.1771 4.72363 3.42777 4.9423 3.72644 5.12363C4.0251 5.2943 4.4411 5.49697 4.97444 5.73163C5.61444 6.01963 6.13177 6.2863 6.52644 6.53163C6.93177 6.77697 7.2731 7.10763 7.55044 7.52363C7.82777 7.92897 7.96644 8.43563 7.96644 9.04363C7.96644 9.90763 7.6731 10.5956 7.08644 11.1076C6.51044 11.6196 5.69444 11.8756 4.63844 11.8756Z" fill="#344C11"/>
<path d="M9.05176 8.66039C9.05176 7.69626 9.28494 6.84873 9.75131 6.11779C10.2177 5.38236 10.8993 5.01465 11.7962 5.01465C12.3118 5.01465 12.7244 5.09985 13.0338 5.27025C13.3432 5.44066 13.6213 5.67384 13.8679 5.96981H13.8814L13.9217 5.43169C13.9352 5.2299 14.0226 5.129 14.184 5.129H14.7491C14.9509 5.129 15.0518 5.2299 15.0518 5.43169V12.2456C15.0518 13.1066 14.8522 13.7792 14.4531 14.2635C14.0585 14.7523 13.276 14.9967 12.1056 14.9967C11.3208 14.9967 10.7334 14.907 10.3432 14.7277C9.9531 14.5528 9.67508 14.3667 9.50916 14.1694C9.38808 14.0214 9.38135 13.8958 9.48898 13.7927L9.85893 13.4294C9.96207 13.3308 10.1056 13.3622 10.2894 13.5236C10.5271 13.7389 10.7558 13.8913 10.9755 13.981C11.1953 14.0752 11.5742 14.1223 12.1123 14.1223C12.7222 14.1223 13.1661 13.9922 13.4441 13.7321C13.7266 13.472 13.8679 12.9339 13.8679 12.1178V11.7142C13.8679 11.5752 13.8724 11.4384 13.8814 11.3039H13.8679C13.6347 11.6133 13.3589 11.8577 13.0405 12.0371C12.7266 12.2164 12.3118 12.3061 11.7962 12.3061C10.8993 12.3061 10.2177 11.9407 9.75131 11.2097C9.28494 10.4743 9.05176 9.62451 9.05176 8.66039ZM12.1796 8.49249C12.1796 9.3176 10.4441 10.1537 10.7266 10.6649C11.0136 11.1761 11.4979 11.4317 12.1796 11.4317C12.6639 11.4317 13.0652 11.268 13.3836 10.9407C13.7065 10.6088 13.8679 10.1066 13.8679 9.43393V7.88685C13.8679 7.2142 13.7065 6.7142 13.3836 6.38685C13.0652 6.05501 12.6639 5.88909 12.1796 5.88909C11.4979 5.88909 11.0136 6.14469 10.7266 6.6559C10.4441 7.16711 12.1796 7.66738 12.1796 8.49249Z" fill="#344C11"/>
</svg>
