<svg width="33" height="32" viewBox="0 0 33 32" fill="none" xmlns="http://www.w3.org/2000/svg">
<path d="M27.7744 0H5.77441C3.01299 0 0.774414 2.23858 0.774414 5V27C0.774414 29.7614 3.01299 32 5.77441 32H27.7744C30.5358 32 32.7744 29.7614 32.7744 27V5C32.7744 2.23858 30.5358 0 27.7744 0Z" fill="#F00073"/>
<path d="M16.7746 9.19995C18.9746 9.19995 19.2746 9.19995 20.1746 9.19995C20.9746 9.19995 21.3746 9.39995 21.6746 9.49995C22.0746 9.69995 22.3746 9.79995 22.6746 10.1C22.9746 10.4 23.1746 10.7 23.2746 11.1C23.3746 11.4 23.4746 11.8 23.5746 12.6C23.5746 13.5 23.5746 13.7 23.5746 16C23.5746 18.3 23.5746 18.5 23.5746 19.4C23.5746 20.2 23.3746 20.6 23.2746 20.9C23.0746 21.3 22.9746 21.6 22.6746 21.9C22.3746 22.2 22.0746 22.4 21.6746 22.5C21.3746 22.6 20.9746 22.7 20.1746 22.8C19.2746 22.8 19.0746 22.8 16.7746 22.8C14.4746 22.8 14.2746 22.8 13.3746 22.8C12.5746 22.8 12.1746 22.6 11.8746 22.5C11.4746 22.3 11.1746 22.2 10.8746 21.9C10.5746 21.6 10.3746 21.3 10.2746 20.9C10.1746 20.6 10.0746 20.2 9.97461 19.4C9.97461 18.5 9.97461 18.3 9.97461 16C9.97461 13.7 9.97461 13.5 9.97461 12.6C9.97461 11.8 10.1746 11.4 10.2746 11.1C10.4746 10.7 10.5746 10.4 10.8746 10.1C11.1746 9.79995 11.4746 9.59995 11.8746 9.49995C12.1746 9.39995 12.5746 9.29995 13.3746 9.19995C14.2746 9.19995 14.5746 9.19995 16.7746 9.19995ZM16.7746 7.69995C14.4746 7.69995 14.2746 7.69995 13.3746 7.69995C12.4746 7.69995 11.8746 7.89995 11.3746 8.09995C10.8746 8.29995 10.3746 8.59995 9.87461 9.09995C9.37461 9.59995 9.17461 9.99995 8.87461 10.6C8.67461 11.1 8.57461 11.7 8.47461 12.6C8.47461 13.5 8.47461 13.8 8.47461 16C8.47461 18.3 8.47461 18.5 8.47461 19.4C8.47461 20.3 8.67461 20.9 8.87461 21.4C9.07461 21.9 9.37461 22.4 9.87461 22.9C10.3746 23.4 10.7746 23.6 11.3746 23.9C11.8746 24.1 12.4746 24.1999 13.3746 24.2999C14.2746 24.2999 14.5746 24.2999 16.7746 24.2999C18.9746 24.2999 19.2746 24.2999 20.1746 24.2999C21.0746 24.2999 21.6746 24.1 22.1746 23.9C22.6746 23.7 23.1746 23.4 23.6746 22.9C24.1746 22.4 24.3746 22 24.6746 21.4C24.8746 20.9 24.9746 20.3 25.0746 19.4C25.0746 18.5 25.0746 18.2 25.0746 16C25.0746 13.8 25.0746 13.5 25.0746 12.6C25.0746 11.7 24.8746 11.1 24.6746 10.6C24.4746 10.1 24.1746 9.59995 23.6746 9.09995C23.1746 8.59995 22.7746 8.39995 22.1746 8.09995C21.6746 7.89995 21.0746 7.79995 20.1746 7.69995C19.2746 7.69995 19.0746 7.69995 16.7746 7.69995Z" fill="#FFFDFE"/>
<path d="M16.7746 11.7C14.3746 11.7 12.4746 13.6 12.4746 16C12.4746 18.4 14.3746 20.3 16.7746 20.3C19.1746 20.3 21.0746 18.4 21.0746 16C21.0746 13.6 19.1746 11.7 16.7746 11.7ZM16.7746 18.8C15.2746 18.8 13.9746 17.6 13.9746 16C13.9746 14.5 15.1746 13.2 16.7746 13.2C18.2746 13.2 19.5746 14.4 19.5746 16C19.5746 17.5 18.2746 18.8 16.7746 18.8Z" fill="#FFFDFE"/>
<path d="M21.1746 12.6C21.7269 12.6 22.1746 12.1522 22.1746 11.6C22.1746 11.0477 21.7269 10.6 21.1746 10.6C20.6223 10.6 20.1746 11.0477 20.1746 11.6C20.1746 12.1522 20.6223 12.6 21.1746 12.6Z" fill="#FFFDFE"/>
</svg>
