<svg width="90" height="50" viewBox="0 0 90 50" fill="none" xmlns="http://www.w3.org/2000/svg">
<path d="M2.43164 21.0488C1.91406 20.5801 1.77734 20.1699 2.02148 19.8184L2.7832 18.7197C3.04688 18.3389 3.47168 18.3682 4.05762 18.8076C4.8291 19.3838 5.62988 19.8574 6.45996 20.2285C7.2998 20.5996 8.31543 20.7852 9.50684 20.7852C10.3857 20.7852 11.1279 20.6533 11.7334 20.3896C12.3389 20.126 12.8223 19.75 13.1836 19.2617C13.5547 18.7637 13.7402 18.1631 13.7402 17.46C13.7402 16.9521 13.6621 16.4834 13.5059 16.0537C13.3594 15.6143 13.1201 15.248 12.7881 14.9551C12.4561 14.6621 12.1094 14.4326 11.748 14.2666C11.1523 13.9932 10.2588 13.6758 9.06738 13.3145C7.88574 12.9531 6.85059 12.5625 5.96191 12.1426C5.08301 11.7227 4.37988 11.2148 3.85254 10.6191C3.33496 10.0234 2.98828 9.41309 2.8125 8.78809C2.64648 8.15332 2.56348 7.43066 2.56348 6.62012C2.56348 5.37988 2.9248 4.31055 3.64746 3.41211C4.37012 2.51367 5.25391 1.91797 6.29883 1.625C7.35352 1.33203 8.42285 1.18555 9.50684 1.18555C10.7471 1.18555 11.8262 1.34668 12.7441 1.66895C13.6621 1.99121 14.4824 2.41113 15.2051 2.92871C15.7129 3.29004 15.8301 3.6709 15.5566 4.07129L14.8096 5.14062C14.585 5.46289 14.1455 5.39453 13.4912 4.93555C12.9932 4.58398 12.3828 4.25684 11.6602 3.9541C10.9473 3.6416 10.2393 3.48535 9.53613 3.48535C8.6377 3.48535 7.89062 3.59277 7.29492 3.80762C6.69922 4.0127 6.23047 4.36426 5.88867 4.8623C5.54688 5.36035 5.37598 5.93652 5.37598 6.59082C5.37598 7.00098 5.41504 7.38184 5.49316 7.7334C5.57129 8.0752 5.77148 8.42676 6.09375 8.78809C6.41602 9.14941 6.80664 9.42773 7.26562 9.62305C7.88086 9.88672 8.83301 10.1992 10.1221 10.5605C11.4209 10.9121 12.5537 11.3467 13.5205 11.8643C14.4189 12.3428 15.0635 12.8457 15.4541 13.373C15.8545 13.8906 16.1621 14.457 16.377 15.0723C16.6016 15.6777 16.7139 16.3613 16.7139 17.123C16.7139 18.5098 16.3574 19.667 15.6445 20.5947C14.9316 21.5225 14.0869 22.167 13.1104 22.5283C12.1338 22.8896 10.9082 23.0703 9.43359 23.0703C7.66602 23.0703 6.20117 22.8652 5.03906 22.4551C3.87695 22.0449 3.00781 21.5762 2.43164 21.0488ZM18.6048 14.9404C18.6048 12.6455 19.2103 10.751 20.4212 9.25684C21.6419 7.75293 23.4241 7.00098 25.7679 7.00098C28.1116 7.00098 29.889 7.75293 31.0999 9.25684C32.3206 10.751 32.931 12.6455 32.931 14.9404C32.931 17.2354 32.3206 19.1348 31.0999 20.6387C29.889 22.1328 28.1116 22.8799 25.7679 22.8799C23.4241 22.8799 21.6419 22.1328 20.4212 20.6387C19.2103 19.1348 18.6048 17.2354 18.6048 14.9404ZM21.3294 14.9404C21.3294 16.9912 21.7347 18.5098 22.5452 19.4961C23.3558 20.4824 24.43 20.9756 25.7679 20.9756C27.1058 20.9756 28.18 20.4824 28.9905 19.4961C29.8011 18.5098 30.2064 16.9912 30.2064 14.9404C30.2064 12.8896 29.8011 11.3711 28.9905 10.3848C28.18 9.39844 27.1058 8.90527 25.7679 8.90527C24.43 8.90527 23.3558 9.39844 22.5452 10.3848C21.7347 11.3711 21.3294 12.8896 21.3294 14.9404ZM36.3454 22.6309C35.9059 22.6309 35.6862 22.4111 35.6862 21.9717V3.69043C35.6862 3.49512 35.735 3.30957 35.8327 3.13379L36.858 1.27344C37.0436 0.931641 37.195 0.760742 37.3121 0.760742H37.8248C38.1178 0.760742 38.2643 0.931641 38.2643 1.27344V21.9717C38.2643 22.4111 38.0446 22.6309 37.6051 22.6309H36.3454ZM41.0195 14.9404C41.0195 12.6455 41.625 10.751 42.8359 9.25684C44.0566 7.75293 45.8388 7.00098 48.1826 7.00098C50.5263 7.00098 52.3037 7.75293 53.5146 9.25684C54.7353 10.751 55.3457 12.6455 55.3457 14.9404C55.3457 17.2354 54.7353 19.1348 53.5146 20.6387C52.3037 22.1328 50.5263 22.8799 48.1826 22.8799C45.8388 22.8799 44.0566 22.1328 42.8359 20.6387C41.625 19.1348 41.0195 17.2354 41.0195 14.9404ZM43.7441 14.9404C43.7441 16.9912 44.1494 18.5098 44.9599 19.4961C45.7705 20.4824 46.8447 20.9756 48.1826 20.9756C49.5205 20.9756 50.5947 20.4824 51.4052 19.4961C52.2158 18.5098 52.6211 16.9912 52.6211 14.9404C52.6211 12.8896 52.2158 11.3711 51.4052 10.3848C50.5947 9.39844 49.5205 8.90527 48.1826 8.90527C46.8447 8.90527 45.7705 9.39844 44.9599 10.3848C44.1494 11.3711 43.7441 12.8896 43.7441 14.9404Z" fill="#0C0C10"/>
<path d="M0 39.1592C0 37.4209 0.810547 36.1465 2.43164 35.3359C4.0625 34.5254 6.49414 34.0518 9.72656 33.915V32.9189C9.72656 32.001 9.5166 31.21 9.09668 30.5459C8.68652 29.8721 7.86621 29.5352 6.63574 29.5352C5.85449 29.5352 5.22949 29.6133 4.76074 29.7695C4.29199 29.916 3.8623 30.1162 3.47168 30.3701C3.09082 30.6143 2.72461 30.9316 2.37305 31.3223C2.10938 31.6152 1.86035 31.6299 1.62598 31.3662L0.864258 30.4873C0.649414 30.2432 0.722656 29.9502 1.08398 29.6084C1.60156 29.1201 2.10449 28.7539 2.59277 28.5098C3.08105 28.2656 3.68652 28.0605 4.40918 27.8945C5.1416 27.7188 5.88379 27.6309 6.63574 27.6309C8.67676 27.6309 10.1318 28.1582 11.001 29.2129C11.8701 30.2578 12.3047 31.6934 12.3047 33.5195V42.6016C12.3047 43.041 12.085 43.2607 11.6455 43.2607H10.3271C9.94629 43.2607 9.75586 43.041 9.75586 42.6016V41.8838H9.72656C8.95508 42.4893 8.19824 42.9141 7.45605 43.1582C6.72363 43.3926 5.90332 43.5098 4.99512 43.5098C3.39355 43.5098 2.1582 43.1289 1.28906 42.3672C0.429688 41.5957 0 40.5264 0 39.1592ZM2.66602 39.2178C2.66602 39.8232 2.79297 40.3115 3.04688 40.6826C3.30078 41.0439 3.65234 41.2783 4.10156 41.3857C4.55078 41.4834 5.01953 41.5322 5.50781 41.5322C6.25977 41.5322 6.97266 41.459 7.64648 41.3125C8.32031 41.166 9.01367 40.7803 9.72656 40.1553V35.834C7.75391 35.9805 6.34766 36.1611 5.50781 36.376C4.66797 36.5811 3.98438 36.9424 3.45703 37.46C2.92969 37.9678 2.66602 38.5537 2.66602 39.2178Z" fill="#0C0C10"/>
<path d="M15.0745 35.5703C15.0745 33.4707 15.5823 31.625 16.598 30.0332C17.6136 28.4316 19.098 27.6309 21.0511 27.6309C22.1741 27.6309 23.0726 27.8164 23.7464 28.1875C24.4202 28.5586 25.0257 29.0664 25.5628 29.7109H25.5921L25.68 28.5391C25.7093 28.0996 25.8997 27.8799 26.2513 27.8799H27.4818C27.9212 27.8799 28.1409 28.0996 28.1409 28.5391V43.3779C28.1409 45.2529 27.7064 46.7178 26.8372 47.7725C25.9779 48.8369 24.2738 49.3691 21.7249 49.3691C20.0159 49.3691 18.7366 49.1738 17.887 48.7832C17.0374 48.4023 16.432 47.9971 16.0706 47.5674C15.807 47.2451 15.7923 46.9717 16.0267 46.7471L16.8323 45.9561C17.057 45.7412 17.3695 45.8096 17.7698 46.1611C18.2874 46.6299 18.7855 46.9619 19.264 47.1572C19.7425 47.3623 20.5677 47.4648 21.7396 47.4648C23.0677 47.4648 24.0345 47.1816 24.64 46.6152C25.2552 46.0488 25.5628 44.877 25.5628 43.0996V42.2207C25.5628 41.918 25.5726 41.6201 25.5921 41.3271H25.5628C25.055 42.001 24.4544 42.5332 23.7611 42.9238C23.0775 43.3145 22.1741 43.5098 21.0511 43.5098C19.098 43.5098 17.6136 42.7139 16.598 41.1221C15.5823 39.5205 15.0745 37.6699 15.0745 35.5703ZM21.8861 35.2047C21.8861 37.0015 18.1068 38.8223 18.722 39.9355C19.347 41.0488 20.4017 41.6055 21.8861 41.6055C22.9407 41.6055 23.8148 41.249 24.5081 40.5361C25.2113 39.8135 25.5628 38.7197 25.5628 37.2549V33.8857C25.5628 32.4209 25.2113 31.332 24.5081 30.6191C23.8148 29.8965 22.9407 29.5352 21.8861 29.5352C20.4017 29.5352 19.347 30.0918 18.722 31.2051C18.1068 32.3184 21.8861 33.4078 21.8861 35.2047Z" fill="#344C11"/>
<path d="M30.9108 35.5703C30.9108 33.1484 31.5163 31.2197 32.7272 29.7842C33.9381 28.3486 35.6715 27.6309 37.9274 27.6309C39.8024 27.6309 41.3551 28.29 42.5856 29.6084C43.8258 30.917 44.4459 33.0117 44.4459 35.8926C44.4459 36.332 44.2457 36.5518 43.8454 36.5518H33.6354C33.8014 38.4365 34.3092 39.75 35.1588 40.4922C36.0084 41.2246 36.9704 41.5908 38.0446 41.5908C39.1774 41.5908 40.0465 41.4004 40.652 41.0195C41.2575 40.6387 41.7018 40.2627 41.985 39.8916C42.2975 39.4814 42.6002 39.4033 42.8932 39.6572L43.7575 40.4043C43.9821 40.5996 43.9821 40.8682 43.7575 41.21C43.5719 41.4932 43.0397 41.9473 42.1608 42.5723C41.2916 43.1973 39.9196 43.5098 38.0446 43.5098C35.6032 43.5098 33.8014 42.792 32.6393 41.3564C31.487 39.9209 30.9108 37.9922 30.9108 35.5703ZM33.5768 34.6475H41.8532C41.8141 33.2803 41.4625 32.084 40.7985 31.0586C40.1344 30.0234 39.1579 29.5059 37.8688 29.5059C36.736 29.5059 35.7741 29.8867 34.983 30.6484C34.192 31.4004 33.7233 32.7334 33.5768 34.6475Z" fill="#0C0C10"/>
<path d="M47.9189 43.2607C47.4795 43.2607 47.2597 43.041 47.2597 42.6016V28.5391C47.2597 28.0996 47.4795 27.8799 47.9189 27.8799H49.1494C49.5888 27.8799 49.8086 28.0996 49.8086 28.5391V29.7109H49.8671C50.5019 29.0078 51.1855 28.4854 51.9179 28.1436C52.6504 27.8018 53.5634 27.6309 54.6572 27.6309C56.4345 27.6309 57.7089 28.1338 58.4804 29.1396C59.2617 30.1357 59.6523 31.5029 59.6523 33.2412V42.6016C59.6523 43.041 59.4326 43.2607 58.9931 43.2607H57.7334C57.2939 43.2607 57.0742 43.041 57.0742 42.6016V33.9443C57.0742 32.0303 56.7568 30.8193 56.122 30.3115C55.4873 29.7939 54.6816 29.5352 53.705 29.5352C52.4355 29.5352 51.4736 29.916 50.8193 30.6777C50.165 31.4297 49.8379 32.7236 49.8379 34.5596V42.6016C49.8379 43.041 49.6181 43.2607 49.1787 43.2607H47.9189Z" fill="#0C0C10"/>
<path d="M62.3782 35.5703C62.3782 33.2754 62.9446 31.3809 64.0774 29.8867C65.22 28.3828 66.9632 27.6309 69.3069 27.6309C70.8889 27.6309 72.095 27.9141 72.9251 28.4805C73.7649 29.0371 74.3704 29.6084 74.7415 30.1943C74.9466 30.5166 74.9026 30.7754 74.6096 30.9707L73.6868 31.5713C73.3938 31.7764 73.1009 31.6445 72.8079 31.1758C72.5247 30.7266 72.1243 30.3408 71.6067 30.0186C71.0989 29.6963 70.3323 29.5352 69.3069 29.5352C67.969 29.5352 66.9339 30.0283 66.2014 31.0146C65.469 32.001 65.1028 33.5195 65.1028 35.5703C65.1028 37.6211 65.469 39.1396 66.2014 40.126C66.9339 41.1123 67.969 41.6055 69.3069 41.6055C70.3909 41.6055 71.221 41.4004 71.7971 40.9902C72.3733 40.5703 72.7932 40.1162 73.0569 39.6279C73.3108 39.1689 73.5989 39.0371 73.9212 39.2324L74.9026 39.8184C75.1956 39.9941 75.2395 40.2578 75.0345 40.6094C74.7903 41.0293 74.2337 41.6201 73.3645 42.3818C72.5052 43.1338 71.1526 43.5098 69.3069 43.5098C66.9632 43.5098 65.22 42.7627 64.0774 41.2686C62.9446 39.7646 62.3782 37.8652 62.3782 35.5703Z" fill="#0C0C10"/>
<path d="M76.6031 28.5977C76.4273 28.1191 76.5592 27.8799 76.9986 27.8799H78.5953C78.9176 27.8799 79.1373 28.0703 79.2545 28.4512L82.3307 38.1191C82.4186 38.3828 82.5504 38.7979 82.7262 39.3643C82.9117 39.9209 83.0436 40.4189 83.1217 40.8584H83.151C83.2291 40.4189 83.3219 40.0234 83.4293 39.6719C83.5465 39.3105 83.7174 38.793 83.942 38.1191L87.0475 28.4512C87.1744 28.0703 87.3941 27.8799 87.7066 27.8799H89.3033C89.7428 27.8799 89.8746 28.1191 89.6988 28.5977L84.7623 42.3672C83.8346 44.9551 83.0045 46.7666 82.2721 47.8018C81.5396 48.8467 80.4459 49.3691 78.9908 49.3691C78.2291 49.3691 77.6236 49.2568 77.1744 49.0322C76.9693 48.9346 76.901 48.7832 76.9693 48.5781L77.3502 47.3916C77.4186 47.1865 77.5504 47.1279 77.7457 47.2158C78.1461 47.3818 78.5318 47.4648 78.9029 47.4648C79.5865 47.4648 80.1432 47.0938 80.5729 46.3516C81.0025 45.6191 81.3443 44.8818 81.5982 44.1396L81.8912 43.2754L76.6031 28.5977Z" fill="#0C0C10"/>
</svg>
