<svg width="24" height="25" viewBox="0 0 24 25" fill="none" xmlns="http://www.w3.org/2000/svg">
<rect y="0.5" width="24" height="24" rx="5" fill="#AEC670"/>
<path d="M14.9091 8.13636V16.5C14.9091 17.2715 14.6026 18.0115 14.057 18.557C13.5115 19.1026 12.7715 19.4091 12 19.4091C11.2285 19.4091 10.4885 19.1026 9.94296 18.557C9.3974 18.0115 9.09091 17.2715 9.09091 16.5V7.40909C9.09091 6.92688 9.28247 6.46442 9.62344 6.12344C9.96442 5.78247 10.4269 5.59091 10.9091 5.59091C11.3913 5.59091 11.8538 5.78247 12.1947 6.12344C12.5357 6.46442 12.7273 6.92688 12.7273 7.40909V15.0455C12.7273 15.2383 12.6506 15.4233 12.5143 15.5597C12.3779 15.6961 12.1929 15.7727 12 15.7727C11.8071 15.7727 11.6221 15.6961 11.4857 15.5597C11.3494 15.4233 11.2727 15.2383 11.2727 15.0455V8.13636H10.1818V15.0455C10.1818 15.5277 10.3734 15.9901 10.7144 16.3311C11.0553 16.6721 11.5178 16.8636 12 16.8636C12.4822 16.8636 12.9447 16.6721 13.2856 16.3311C13.6266 15.9901 13.8182 15.5277 13.8182 15.0455V7.40909C13.8182 6.63755 13.5117 5.89761 12.9661 5.35205C12.4206 4.80649 11.6806 4.5 10.9091 4.5C10.1376 4.5 9.39761 4.80649 8.85205 5.35205C8.30649 5.89761 8 6.63755 8 7.40909V16.5C8 17.5609 8.42143 18.5783 9.17157 19.3284C9.92172 20.0786 10.9391 20.5 12 20.5C13.0609 20.5 14.0783 20.0786 14.8284 19.3284C15.5786 18.5783 16 17.5609 16 16.5V8.13636H14.9091Z" fill="black"/>
</svg>
