<svg width="33" height="32" viewBox="0 0 33 32" fill="none" xmlns="http://www.w3.org/2000/svg">
<path d="M27.7744 0H5.77441C3.01299 0 0.774414 2.23858 0.774414 5V27C0.774414 29.7614 3.01299 32 5.77441 32H27.7744C30.5358 32 32.7744 29.7614 32.7744 27V5C32.7744 2.23858 30.5358 0 27.7744 0Z" fill="#0088CC"/>
<path d="M8.87433 15.7083C13.1693 13.8371 16.0333 12.6034 17.4663 12.0074C21.5578 10.3056 22.4079 10.01 22.9621 10.0001C23.084 9.99805 23.3565 10.0283 23.533 10.1715C23.682 10.2924 23.723 10.4558 23.7427 10.5705C23.7623 10.6851 23.7867 10.9464 23.7673 11.1505C23.5456 13.4801 22.5862 19.1335 22.0981 21.7427C21.8916 22.8468 21.4849 23.217 21.0913 23.2532C20.2357 23.3319 19.586 22.6878 18.7573 22.1446C17.4607 21.2946 16.7281 20.7654 15.4694 19.936C14.0148 18.9774 14.9578 18.4506 15.7868 17.5896C16.0037 17.3643 19.7734 13.9355 19.8463 13.6244C19.8555 13.5855 19.8639 13.4405 19.7778 13.3639C19.6916 13.2874 19.5645 13.3136 19.4728 13.3344C19.3427 13.3639 17.2712 14.7331 13.2583 17.4419C12.6703 17.8457 12.1377 18.0424 11.6606 18.0321C11.1345 18.0207 10.1226 17.7346 9.37039 17.4901C8.44774 17.1902 7.71444 17.0316 7.77829 16.5223C7.81155 16.257 8.1769 15.9856 8.87433 15.7083Z" fill="#FFFDFE"/>
</svg>
